<?xml version="1.0" encoding="UTF-8"?>
<svg id="Ebene_2" data-name="Ebene 2" xmlns="http://www.w3.org/2000/svg" viewBox="0 0 141 107">
  <defs>
    <style>
      .cls-1 {
        fill: #f90;
      }

      .cls-2 {
        fill: #fff;
      }
    </style>
  </defs>
  <polygon class="cls-2" points="137 13 137 25 60 70 49 53 119 13 137 13"/>
  <g>
    <path class="cls-1" d="M61.46,68.68l-.03,5.51c-.19,3.44-1.05,6.79-2.69,10.05-6.44,12.81-23.98,19.03-37.09,11.17-8.65-5.19-14.06-13.58-15.57-27.69-1.16-10.82-.1-17.01,5.12-27.18,3.63-7.07,8.92-7.68,8.92-7.68,0,0-2.81,4.51-3.16,8.63-.76,8.88,10.54,8.37,9.98-.15-.34-5.05-2.82-8.09-3.49-15.31-.67-5.93,5.02-12.97,10.39-12.32,5.37.66,7.01-2.18,7.75-3.85.73-1.68-.76-6.19-.76-6.19,0,0,1.59.91,3.86,3.88,2.27,2.97,2.35,7.1.75,10.06-1.6,2.96-3.06,2.44-6.94,6.3-1.74,1.73-2.34,4.91-.02,7.74,2.4,2.93,6.83,1.61,8.34-1.61,0,0,1.68-3.13.96-5.33,0,0,6.1,2.85,2.25,10.71-2.24,4.58-3.75,3.39-4.21,7.38s3.9,7.95,5.44,9.16l-2.31,2.69-5,4.23,9.81,12.31,7.69-2.5Z"/>
    <path d="M137.24,12.42l-18.48.24L50.86,51.68s-4.06,2.25-10.57.69c-11.27-3.04-22.91,3.67-25.94,14.94s3.67,22.91,14.94,25.94c1.82.49,3.68.73,5.54.73,3.83,0,7.65-1.02,10.98-3,4.8-2.85,8.14-7.36,9.42-12.69,1.56-6.49,5.63-8.57,5.73-8.62l.55-.37,75.38-43.46.86-.52v-13.2l-.52.3ZM119.03,13.66l16.44-.21L55.4,59.82c-.01-.69.33-1.36.97-1.73.93-.54,1.25-1.73.71-2.67-.54-.94-1.73-1.26-2.67-.72-.93.54-2.13.22-2.67-.72-.28-.49-.32-1.05-.17-1.56L119.03,13.66ZM136.76,24.76l-75.77,43.7-.06.04c-.55-.09-1.07-.42-1.37-.95-.54-.94-.22-2.13.71-2.67.93-.54,1.25-1.73.72-2.67-.54-.94-1.74-1.26-2.67-.72-.92.53-2.08.22-2.63-.67L136.76,13.86v10.9Z"/>
  </g>
</svg>